<svg id="visual" viewBox="0 0 900 600" width="900" height="600" xmlns="http://www.w3.org/2000/svg" xmlns:xlink="http://www.w3.org/1999/xlink" version="1.1"><rect x="0" y="0" width="900" height="600" fill="#001220"></rect><path d="M0 336L21.5 349.5C43 363 86 390 128.8 399.3C171.7 408.7 214.3 400.3 257.2 392.7C300 385 343 378 385.8 377.5C428.7 377 471.3 383 514.2 388.8C557 394.7 600 400.3 642.8 396C685.7 391.7 728.3 377.3 771.2 360.7C814 344 857 325 878.5 315.5L900 306L900 601L878.5 601C857 601 814 601 771.2 601C728.3 601 685.7 601 642.8 601C600 601 557 601 514.2 601C471.3 601 428.7 601 385.8 601C343 601 300 601 257.2 601C214.3 601 171.7 601 128.8 601C86 601 43 601 21.5 601L0 601Z" fill="#fa7268"></path><path d="M0 371L21.5 380.3C43 389.7 86 408.3 128.8 412.2C171.7 416 214.3 405 257.2 408C300 411 343 428 385.8 435.8C428.7 443.7 471.3 442.3 514.2 434.8C557 427.3 600 413.7 642.8 402.3C685.7 391 728.3 382 771.2 381.7C814 381.3 857 389.7 878.5 393.8L900 398L900 601L878.5 601C857 601 814 601 771.2 601C728.3 601 685.7 601 642.8 601C600 601 557 601 514.2 601C471.3 601 428.7 601 385.8 601C343 601 300 601 257.2 601C214.3 601 171.7 601 128.8 601C86 601 43 601 21.5 601L0 601Z" fill="#ef5f67"></path><path d="M0 464L21.5 464.7C43 465.3 86 466.7 128.8 464.8C171.7 463 214.3 458 257.2 452.3C300 446.7 343 440.3 385.8 439.8C428.7 439.3 471.3 444.7 514.2 453.2C557 461.7 600 473.3 642.8 474.5C685.7 475.7 728.3 466.3 771.2 455.2C814 444 857 431 878.5 424.5L900 418L900 601L878.5 601C857 601 814 601 771.2 601C728.3 601 685.7 601 642.8 601C600 601 557 601 514.2 601C471.3 601 428.7 601 385.8 601C343 601 300 601 257.2 601C214.3 601 171.7 601 128.8 601C86 601 43 601 21.5 601L0 601Z" fill="#e34c67"></path><path d="M0 523L21.5 518.3C43 513.7 86 504.3 128.8 495.7C171.7 487 214.3 479 257.2 485C300 491 343 511 385.8 517.3C428.7 523.7 471.3 516.3 514.2 504.5C557 492.7 600 476.3 642.8 476.8C685.7 477.3 728.3 494.7 771.2 498C814 501.3 857 490.7 878.5 485.3L900 480L900 601L878.5 601C857 601 814 601 771.2 601C728.3 601 685.7 601 642.8 601C600 601 557 601 514.2 601C471.3 601 428.7 601 385.8 601C343 601 300 601 257.2 601C214.3 601 171.7 601 128.8 601C86 601 43 601 21.5 601L0 601Z" fill="#d53867"></path><path d="M0 543L21.5 539.3C43 535.7 86 528.3 128.8 525.5C171.7 522.7 214.3 524.3 257.2 527.7C300 531 343 536 385.8 539.7C428.7 543.3 471.3 545.7 514.2 545.8C557 546 600 544 642.8 541.7C685.7 539.3 728.3 536.7 771.2 536.3C814 536 857 538 878.5 539L900 540L900 601L878.5 601C857 601 814 601 771.2 601C728.3 601 685.7 601 642.8 601C600 601 557 601 514.2 601C471.3 601 428.7 601 385.8 601C343 601 300 601 257.2 601C214.3 601 171.7 601 128.8 601C86 601 43 601 21.5 601L0 601Z" fill="#c62368"></path></svg>