<svg id="visual" viewBox="0 0 900 600" width="900" height="600" xmlns="http://www.w3.org/2000/svg" xmlns:xlink="http://www.w3.org/1999/xlink" version="1.1"><rect x="0" y="0" width="900" height="600" fill="#001220"></rect><path d="M0 468L21.5 474.7C43 481.3 86 494.7 128.8 499.2C171.7 503.7 214.3 499.3 257.2 495.5C300 491.7 343 488.3 385.8 488.2C428.7 488 471.3 491 514.2 494C557 497 600 500 642.8 497.8C685.7 495.7 728.3 488.3 771.2 480C814 471.7 857 462.3 878.5 457.7L900 453L900 601L878.5 601C857 601 814 601 771.2 601C728.3 601 685.7 601 642.8 601C600 601 557 601 514.2 601C471.3 601 428.7 601 385.8 601C343 601 300 601 257.2 601C214.3 601 171.7 601 128.8 601C86 601 43 601 21.5 601L0 601Z" fill="#fa7268"></path><path d="M0 485L21.5 489.7C43 494.3 86 503.7 128.8 505.7C171.7 507.7 214.3 502.3 257.2 503.8C300 505.3 343 513.7 385.8 517.5C428.7 521.3 471.3 520.7 514.2 517C557 513.3 600 506.7 642.8 501C685.7 495.3 728.3 490.7 771.2 490.3C814 490 857 494 878.5 496L900 498L900 601L878.5 601C857 601 814 601 771.2 601C728.3 601 685.7 601 642.8 601C600 601 557 601 514.2 601C471.3 601 428.7 601 385.8 601C343 601 300 601 257.2 601C214.3 601 171.7 601 128.8 601C86 601 43 601 21.5 601L0 601Z" fill="#ef5f67"></path><path d="M0 532L21.5 532.2C43 532.3 86 532.7 128.8 531.7C171.7 530.7 214.3 528.3 257.2 525.7C300 523 343 520 385.8 519.8C428.7 519.7 471.3 522.3 514.2 526.5C557 530.7 600 536.3 642.8 536.8C685.7 537.3 728.3 532.7 771.2 527.2C814 521.7 857 515.3 878.5 512.2L900 509L900 601L878.5 601C857 601 814 601 771.2 601C728.3 601 685.7 601 642.8 601C600 601 557 601 514.2 601C471.3 601 428.7 601 385.8 601C343 601 300 601 257.2 601C214.3 601 171.7 601 128.8 601C86 601 43 601 21.5 601L0 601Z" fill="#e34c67"></path><path d="M0 561L21.5 558.7C43 556.3 86 551.7 128.8 547.3C171.7 543 214.3 539 257.2 542C300 545 343 555 385.8 558.2C428.7 561.3 471.3 557.7 514.2 551.8C557 546 600 538 642.8 538.2C685.7 538.3 728.3 546.7 771.2 548.3C814 550 857 545 878.5 542.5L900 540L900 601L878.5 601C857 601 814 601 771.2 601C728.3 601 685.7 601 642.8 601C600 601 557 601 514.2 601C471.3 601 428.7 601 385.8 601C343 601 300 601 257.2 601C214.3 601 171.7 601 128.8 601C86 601 43 601 21.5 601L0 601Z" fill="#d53867"></path><path d="M0 571L21.5 569.2C43 567.3 86 563.7 128.8 562.2C171.7 560.7 214.3 561.3 257.2 563C300 564.7 343 567.3 385.8 569.3C428.7 571.3 471.3 572.7 514.2 572.7C557 572.7 600 571.3 642.8 570.2C685.7 569 728.3 568 771.2 567.8C814 567.7 857 568.3 878.5 568.7L900 569L900 601L878.5 601C857 601 814 601 771.2 601C728.3 601 685.7 601 642.8 601C600 601 557 601 514.2 601C471.3 601 428.7 601 385.8 601C343 601 300 601 257.2 601C214.3 601 171.7 601 128.8 601C86 601 43 601 21.5 601L0 601Z" fill="#c62368"></path></svg>