<svg id="visual" viewBox="0 0 900 600" width="900" height="600" xmlns="http://www.w3.org/2000/svg" xmlns:xlink="http://www.w3.org/1999/xlink" version="1.1"><rect x="0" y="0" width="900" height="600" fill="#001220"></rect><path d="M0 130L21.5 123.3C43 116.7 86 103.3 128.8 98.8C171.7 94.3 214.3 98.7 257.2 102.5C300 106.3 343 109.7 385.8 109.8C428.7 110 471.3 107 514.2 104C557 101 600 98 642.8 100.2C685.7 102.3 728.3 109.7 771.2 118C814 126.3 857 135.7 878.5 140.3L900 145L900 0L878.5 0C857 0 814 0 771.2 0C728.3 0 685.7 0 642.8 0C600 0 557 0 514.2 0C471.3 0 428.7 0 385.8 0C343 0 300 0 257.2 0C214.3 0 171.7 0 128.8 0C86 0 43 0 21.5 0L0 0Z" fill="#fa7268"></path><path d="M0 113L21.5 108.3C43 103.7 86 94.3 128.8 92.3C171.7 90.3 214.3 95.7 257.2 94.2C300 92.7 343 84.3 385.8 80.5C428.7 76.7 471.3 77.3 514.2 81C557 84.7 600 91.3 642.8 97C685.7 102.7 728.3 107.3 771.2 107.7C814 108 857 104 878.5 102L900 100L900 0L878.5 0C857 0 814 0 771.2 0C728.3 0 685.7 0 642.8 0C600 0 557 0 514.2 0C471.3 0 428.7 0 385.8 0C343 0 300 0 257.2 0C214.3 0 171.7 0 128.8 0C86 0 43 0 21.5 0L0 0Z" fill="#ef5f67"></path><path d="M0 66L21.5 65.8C43 65.7 86 65.3 128.8 66.3C171.7 67.3 214.3 69.7 257.2 72.3C300 75 343 78 385.8 78.2C428.7 78.3 471.3 75.7 514.2 71.5C557 67.3 600 61.7 642.8 61.2C685.7 60.7 728.3 65.3 771.2 70.8C814 76.3 857 82.7 878.5 85.8L900 89L900 0L878.5 0C857 0 814 0 771.2 0C728.3 0 685.7 0 642.8 0C600 0 557 0 514.2 0C471.3 0 428.7 0 385.8 0C343 0 300 0 257.2 0C214.3 0 171.7 0 128.8 0C86 0 43 0 21.5 0L0 0Z" fill="#e34c67"></path><path d="M0 37L21.5 39.3C43 41.7 86 46.3 128.8 50.7C171.7 55 214.3 59 257.2 56C300 53 343 43 385.8 39.8C428.7 36.7 471.3 40.3 514.2 46.2C557 52 600 60 642.8 59.8C685.7 59.7 728.3 51.3 771.2 49.7C814 48 857 53 878.5 55.5L900 58L900 0L878.5 0C857 0 814 0 771.2 0C728.3 0 685.7 0 642.8 0C600 0 557 0 514.2 0C471.3 0 428.7 0 385.8 0C343 0 300 0 257.2 0C214.3 0 171.7 0 128.8 0C86 0 43 0 21.5 0L0 0Z" fill="#d53867"></path><path d="M0 27L21.5 28.8C43 30.7 86 34.3 128.8 35.8C171.7 37.3 214.3 36.7 257.2 35C300 33.3 343 30.7 385.8 28.7C428.7 26.7 471.3 25.3 514.2 25.3C557 25.3 600 26.7 642.8 27.8C685.7 29 728.3 30 771.2 30.2C814 30.3 857 29.7 878.5 29.3L900 29L900 0L878.5 0C857 0 814 0 771.2 0C728.3 0 685.7 0 642.8 0C600 0 557 0 514.2 0C471.3 0 428.7 0 385.8 0C343 0 300 0 257.2 0C214.3 0 171.7 0 128.8 0C86 0 43 0 21.5 0L0 0Z" fill="#c62368"></path></svg>